<?xml version="1.0" encoding="UTF-8"?>
<svg version="1.1" xmlns="http://www.w3.org/2000/svg" width="384" height="384">
<path d="M0 0 C126.72 0 253.44 0 384 0 C384 126.72 384 253.44 384 384 C257.28 384 130.56 384 0 384 C0 257.28 0 130.56 0 0 Z " fill="#F8EEE5" transform="translate(0,0)"/>
<path d="M0 0 C1.52156399 -0.00708274 3.04312094 -0.01583747 4.56466675 -0.02610779 C8.64542753 -0.04834759 12.72579587 -0.04572265 16.80659366 -0.03678632 C20.23557303 -0.03162607 23.66448185 -0.03900929 27.09345394 -0.04625839 C35.19306373 -0.06317656 43.29248475 -0.05977353 51.39208984 -0.04296875 C59.70039232 -0.02605202 68.00816917 -0.04189413 76.3164143 -0.07419163 C83.49575084 -0.10102554 90.67492517 -0.10812667 97.85430676 -0.09967655 C102.12203436 -0.09478774 106.38944617 -0.09674026 110.6571331 -0.11746407 C114.67371583 -0.13604049 118.68955218 -0.12960018 122.70609665 -0.10526466 C124.16478049 -0.10032558 125.62352345 -0.10356248 127.08215904 -0.11641312 C147.09316287 -0.27852241 163.93669716 6.37534891 179.04125977 19.53344727 C179.98098633 20.31268555 179.98098633 20.31268555 180.93969727 21.10766602 C191.01701504 30.15901253 199.0951224 46.80154626 200.28051758 60.24731445 C201.08314101 78.13689895 199.9395867 94.64164355 189.04125977 109.53344727 C188.44442383 110.36102539 187.84758789 111.18860352 187.23266602 112.04125977 C180.52038553 120.87391859 173.18077705 127.78913286 163.29125977 132.84594727 C162.68475586 133.15935059 162.07825195 133.47275391 161.45336914 133.7956543 C149.59084584 139.51006756 138.02814618 141.12720098 125.03076172 141.03515625 C123.48005689 141.03895028 121.92935547 141.04445918 120.37866211 141.05152893 C116.21138263 141.0653562 112.0445219 141.05440612 107.87726617 141.03781772 C103.49289737 141.02384853 99.10854997 141.0304404 94.72416687 141.03395081 C87.36845237 141.03664277 80.01290199 141.02326208 72.65722656 141 C64.17741147 140.97336694 55.69787004 140.97165641 47.21802741 140.98338836 C39.0242194 140.99419932 30.83050947 140.98795501 22.63670921 140.97383308 C19.16529177 140.96810499 15.69394687 140.96813069 12.22252846 140.97289848 C8.13062352 140.97770134 4.03901508 140.96743102 -0.05283356 140.94594383 C-1.54628055 140.94042165 -3.0397563 140.93986816 -4.53320503 140.9448967 C-22.54238686 140.99789235 -39.40163467 135.84551252 -52.95874023 123.53344727 C-53.87526367 122.7194043 -53.87526367 122.7194043 -54.81030273 121.88891602 C-67.69083921 109.77440264 -75.46994 93.45014918 -76.27514648 75.86547852 C-76.86668406 54.68041233 -72.04817554 37.42385411 -57.38500977 21.73803711 C-52.16838842 16.46069508 -46.26613629 12.41555848 -39.95874023 8.53344727 C-39.28584961 8.10418945 -38.61295898 7.67493164 -37.91967773 7.23266602 C-26.6272607 0.79051621 -12.63923823 -0.06322214 0 0 Z " fill="#1B3B3A" transform="translate(129.958740234375,121.466552734375)"/>
<path d="M0 0 C5.69532966 3.22506619 10.69317999 7.65403829 13.3125 13.7421875 C15.15250307 20.60244585 15.21036338 27.68794866 11.8203125 34.0390625 C8.67487355 38.60332713 4.86411773 42.57436547 1.0078125 46.5390625 C0.13068604 47.44483032 0.13068604 47.44483032 -0.76416016 48.36889648 C-3.62117768 51.18260178 -6.07211656 53.30210373 -9.83203125 54.76953125 C-13.25879676 56.18592766 -14.01416777 56.80129107 -15.6796875 59.9765625 C-20.77903666 68.30230952 -29.2721947 78.36221757 -38.7421875 81.65234375 C-45.87414004 83.03777372 -52.85515399 83.2180824 -59.2421875 79.42578125 C-65.20387544 75.07015148 -69.60329762 70.51401795 -71.0546875 63.1015625 C-71.90311372 55.8475183 -71.35427905 50.1001862 -67.0546875 44.1015625 C-54.13193478 27.99981261 -54.13193478 27.99981261 -46.453125 25.12890625 C-43.56522994 23.89190885 -42.94572717 22.86848165 -41.4296875 20.1640625 C-32.64394779 6.14763755 -17.31010358 -7.49870884 0 0 Z " fill="#EFE7E4" transform="translate(276.0546875,150.8984375)"/>
<path d="M0 0 C6.63053954 2.60485482 10.22737128 7.09193518 13.515625 13.2421875 C17.34674151 20.3599987 21.67931818 26.13678598 27.3125 31.9375 C28.65406555 33.34986185 29.99521544 34.76261866 31.3359375 36.17578125 C33.37350178 38.30774408 35.41899977 40.43023478 37.4765625 42.54296875 C45.86332575 51.44763969 50.76367806 61.87778757 54.8359375 73.27734375 C56.34371969 76.80393498 58.1276702 78.53800303 61 81 C61 81.99 61 82.98 61 84 C62.98 84.99 62.98 84.99 65 86 C65 86.66 65 87.32 65 88 C60.28595116 88.34446365 55.70485572 88.52336124 51 88 C48.3125 85.3125 48.3125 85.3125 47.3515625 83.66796875 C44.40755259 80.0347542 39.25219967 78.68300722 35 77 C35.020625 78.0725 35.04125 79.145 35.0625 80.25 C35.0142016 83.14790424 34.86844115 85.28612141 34 88 C36.64 88.33 39.28 88.66 42 89 C42.33 89.99 42.66 90.98 43 92 C41.453125 92.2165625 41.453125 92.2165625 39.875 92.4375 C38.59625 92.623125 37.3175 92.80875 36 93 C34.39125 93.2165625 34.39125 93.2165625 32.75 93.4375 C29.80051699 93.86092155 29.80051699 93.86092155 27 96 C25.68 96 24.36 96 23 96 C23.495 94.02 23.495 94.02 24 92 C23.01 92.495 23.01 92.495 22 93 C20.45976004 93.06950541 18.91665012 93.08452357 17.375 93.0625 C16.55773437 93.05347656 15.74046875 93.04445313 14.8984375 93.03515625 C14.27195313 93.02355469 13.64546875 93.01195312 13 93 C13.33 92.34 13.66 91.68 14 91 C12.9790625 91.2165625 12.9790625 91.2165625 11.9375 91.4375 C3.77777778 93 3.77777778 93 0 93 C-0.495 92.01 -0.495 92.01 -1 91 C-2.32 91 -3.64 91 -5 91 C-4.265625 89.046875 -4.265625 89.046875 -3 87 C-1.046875 86.390625 -1.046875 86.390625 1.25 86.25 C2.04792969 86.19457031 2.84585938 86.13914062 3.66796875 86.08203125 C6.44906359 85.98420379 9.21775127 85.92866029 12 86 C12.59070014 84.05396726 12.59070014 84.05396726 13 82 C12.67 81.67 12.34 81.34 12 81 C12 79.5 12 78 12 76.5 C11.41200844 69.52382891 6.94194409 66.45556647 2 62 C-4.530027 54.26707329 -5.29278225 42.86598553 -7.25390625 33.2265625 C-7.98481825 30.06565512 -8.92349281 27.05857409 -10 24 C-10.61488281 24.01160156 -11.22976562 24.02320313 -11.86328125 24.03515625 C-12.67152344 24.04417969 -13.47976562 24.05320313 -14.3125 24.0625 C-15.51326172 24.07990234 -15.51326172 24.07990234 -16.73828125 24.09765625 C-19 24 -19 24 -22 23 C-22.33 23.99 -22.66 24.98 -23 26 C-25.35620437 22.46569344 -25.48991613 21.16428713 -25 17 C-23.1875 13.9375 -23.1875 13.9375 -21 11 C-20.2884375 9.7315625 -20.2884375 9.7315625 -19.5625 8.4375 C-14.39351803 0.37388813 -9.17436542 -1.2256758 0 0 Z " fill="#F3ECE5" transform="translate(128,144)"/>
<path d="M0 0 C4.63809404 1.69468821 7.59163197 3.64641164 10 8 C10.773207 12.71814069 10.62563982 16.63496767 8.625 21 C4.63745636 25.55719273 0.35454 29.79504343 -4 34 C-6.64651851 32.67674074 -6.67499058 31.54764987 -7.6875 28.8125 C-9.79893356 23.8832053 -12.47963007 20.86776157 -17 18 C-20.24618446 16.60794936 -20.24618446 16.60794936 -23 16 C-23.33 19.3 -23.66 22.6 -24 26 C-23.05125 26.556875 -22.1025 27.11375 -21.125 27.6875 C-17.80276941 30.14595064 -16.91598445 31.06126686 -16 35 C-15.46448747 40.89063782 -16.49259769 44.94245835 -20.29077148 49.57397461 C-21.77806477 51.17935073 -23.31040427 52.72000221 -24.875 54.25 C-25.39191406 54.77851563 -25.90882813 55.30703125 -26.44140625 55.8515625 C-30.55172072 59.93081666 -34.14580868 62.27709158 -40 62.3125 C-44.61425946 62.19084344 -47.28914477 60.46644734 -50.75 57.5 C-53.41599607 54.30080471 -53.51789651 50.39250574 -53.47265625 46.3984375 C-52.57231137 41.8297453 -49.20214191 39.1711134 -46 36 C-44.72014556 34.50768972 -43.448945 33.0079038 -42.1875 31.5 C-40.48046875 29.46875 -40.48046875 29.46875 -39 28 C-38.34 28 -37.68 28 -37 28 C-36.70609375 28.96099609 -36.70609375 28.96099609 -36.40625 29.94140625 C-34.18199116 36.37449971 -31.26578793 41.7679269 -25 45 C-22.30040714 44.76322516 -22.30040714 44.76322516 -20 44 C-19.34 41.36 -18.68 38.72 -18 36 C-18.7425 35.79375 -19.485 35.5875 -20.25 35.375 C-23.994607 33.5026965 -25.15752389 31.75319208 -27 28 C-27.94206028 23.95512212 -27.98121987 20.60819742 -25.77734375 16.99609375 C-23.95583254 14.86453808 -22.02344093 12.94136132 -20 11 C-18.70255859 9.6696875 -18.70255859 9.6696875 -17.37890625 8.3125 C-8.39994919 -0.86193508 -8.39994919 -0.86193508 0 0 Z " fill="#1D3C35" transform="translate(269,160)"/>
<path d="M0 0 C47.85 0 95.7 0 145 0 C144.67 0.99 144.34 1.98 144 3 C96.48 2.67 48.96 2.34 0 2 C0 1.34 0 0.68 0 0 Z " fill="#1C2E2E" transform="translate(119,122)"/>
<path d="M0 0 C2.36280927 2.14800843 3.58340234 4.16680467 5 7 C5.66 7.33 6.32 7.66 7 8 C6.67 8.99 6.34 9.98 6 11 C5.34 11 4.68 11 4 11 C4.33 12.32 4.66 13.64 5 15 C0.32798795 16.20568053 -4.21496292 16.09382426 -9 16 C-8.67 15.34 -8.34 14.68 -8 14 C-8.680625 14.144375 -9.36125 14.28875 -10.0625 14.4375 C-18.22222222 16 -18.22222222 16 -22 16 C-22.33 15.34 -22.66 14.68 -23 14 C-24.32 14 -25.64 14 -27 14 C-26.265625 12.046875 -26.265625 12.046875 -25 10 C-23.046875 9.390625 -23.046875 9.390625 -20.75 9.25 C-19.94820312 9.19457031 -19.14640625 9.13914063 -18.3203125 9.08203125 C-15.54223995 8.98381656 -12.77932216 8.93382566 -10 9 C-9.01 9 -8.02 9 -7 9 C-7.99 10.485 -7.99 10.485 -9 12 C-8.34 11.67 -7.68 11.34 -7 11 C-6.67 10.01 -6.34 9.02 -6 8 C-5.01 7.67 -4.02 7.34 -3 7 C-1.28432339 3.49705129 -1.28432339 3.49705129 0 0 Z " fill="#DBDBD6" transform="translate(150,221)"/>
<path d="M0 0 C0 3.69834896 -0.81364222 4.27081428 -3.25 6.9375 C-4.20519531 7.99130859 -4.20519531 7.99130859 -5.1796875 9.06640625 C-7.08036133 11.08536236 -9.03946189 13.03946189 -11 15 C-12.455276 17.91055201 -12.45067148 19.78091798 -12 23 C-10.04690112 24.40113616 -8.04291182 25.73339467 -6 27 C-3.68232233 30.89791244 -3.6626935 34.53068893 -4 39 C-4.66 39.66 -5.32 40.32 -6 41 C-6 38.36 -6 35.72 -6 33 C-6.7425 32.79375 -7.485 32.5875 -8.25 32.375 C-11.994607 30.5026965 -13.15752389 28.75319208 -15 25 C-15.74479626 21.80210496 -15.79956034 19.19280216 -15 16 C-13.0673539 12.8995919 -10.63244861 10.51435746 -8 8 C-6.52070653 6.50012505 -5.04153671 5.00012814 -3.5625 3.5 C-2.37752704 2.33076672 -1.19096751 1.16312671 0 0 Z " fill="#253B2A" transform="translate(257,163)"/>
<path d="M0 0 C0 0.99 0 1.98 0 3 C1.32 2.67 2.64 2.34 4 2 C4.33 2.99 4.66 3.98 5 5 C1.36576791 7.32590854 -1.77088331 7.16265833 -6 7 C-6.33 6.34 -6.66 5.68 -7 5 C-8.32 5 -9.64 5 -11 5 C-10.1875 3.0625 -10.1875 3.0625 -9 1 C-5.8035914 -0.06546953 -3.34252724 -0.07427838 0 0 Z " fill="#D4D8D4" transform="translate(134,230)"/>
<path d="M0 0 C2.36280927 2.14800843 3.58340234 4.16680467 5 7 C5.66 7.33 6.32 7.66 7 8 C6.67 8.99 6.34 9.98 6 11 C1.70700357 12.26264601 -0.87831311 11.62950412 -5 10 C-5 9.34 -5 8.68 -5 8 C-4.54625 7.566875 -4.0925 7.13375 -3.625 6.6875 C-1.65690769 4.64371183 -0.93273129 2.65469676 0 0 Z " fill="#243E2F" transform="translate(150,221)"/>
<path d="M0 0 C0.33 0.99 0.66 1.98 1 3 C-2.3 6.3 -5.6 9.6 -9 13 C-9.99 12.67 -10.98 12.34 -12 12 C-8.04 8.04 -4.08 4.08 0 0 Z " fill="#CBCCCE" transform="translate(249,155)"/>
<path d="M0 0 C0 4.34854266 -2.28219414 5.9990114 -5.109375 9.125 C-7.21504905 11.21327178 -9.33045005 12.70567275 -12 14 C-10.41332422 10.09714233 -7.86649519 7.66479018 -4.875 4.75 C-3.96492187 3.85796875 -3.05484375 2.9659375 -2.1171875 2.046875 C-1.41851562 1.37140625 -0.71984375 0.6959375 0 0 Z " fill="#122D21" transform="translate(257,163)"/>
<path d="M0 0 C0 0.66 0 1.32 0 2 C-4.67201205 3.20568053 -9.21496292 3.09382426 -14 3 C-13.34 2.34 -12.68 1.68 -12 1 C-8.875 1.375 -8.875 1.375 -6 2 C-6 1.34 -6 0.68 -6 0 C-3.50907189 -1.24546405 -2.58919267 -0.7767578 0 0 Z " fill="#B9C2BB" transform="translate(155,234)"/>
<path d="M0 0 C3.96 0 7.92 0 12 0 C7.577168 3.317124 6.28089024 3.30466674 1 3 C0.67 2.01 0.34 1.02 0 0 Z " fill="#C6CDC9" transform="translate(127,234)"/>
<path d="M0 0 C-0.125 1.75 -0.125 1.75 -1 4 C-4.0625 6.25 -4.0625 6.25 -7 8 C-6.44414399 4.1090079 -4.34122117 0 0 0 Z " fill="#213E2C" transform="translate(284,191)"/>
<path d="M0 0 C2.97 0.33 5.94 0.66 9 1 C9.33 1.99 9.66 2.98 10 4 C7.69 4.33 5.38 4.66 3 5 C3.99 4.34 4.98 3.68 6 3 C3.03 2.505 3.03 2.505 0 2 C0 1.34 0 0.68 0 0 Z " fill="#B7BDBE" transform="translate(161,232)"/>
<path d="M0 0 C1.98 0.66 3.96 1.32 6 2 C6 2.66 6 3.32 6 4 C5.38125 4.12375 4.7625 4.2475 4.125 4.375 C1.80879168 4.87197356 1.80879168 4.87197356 0 7 C0 4.69 0 2.38 0 0 Z " fill="#273B2E" transform="translate(163,221)"/>
<path d="M0 0 C0.8125 1.625 0.8125 1.625 1 4 C-0.46818136 6.24609835 -2.15852858 8.02378677 -4 10 C-4.66 9.67 -5.32 9.34 -6 9 C-4.16172132 5.84866512 -2.24027294 2.88035092 0 0 Z " fill="#D8DCDB" transform="translate(113,146)"/>
<path d="M0 0 C0.66 0 1.32 0 2 0 C3.50662097 3.01324195 3.17770373 5.68286377 3 9 C2.34 9.66 1.68 10.32 1 11 C0.67 7.37 0.34 3.74 0 0 Z " fill="#1E2C1E" transform="translate(250,193)"/>
<path d="M0 0 C0.66 0.99 1.32 1.98 2 3 C0.68 4.32 -0.64 5.64 -2 7 C-2.66 6.01 -3.32 5.02 -4 4 C-2.68 2.68 -1.36 1.36 0 0 Z " fill="#39493E" transform="translate(250,202)"/>
<path d="M0 0 C3.36720387 1.39332574 4.9859524 2.9789286 7 6 C6.67 6.66 6.34 7.32 6 8 C4.99403703 7.0479279 3.99538437 6.08812654 3 5.125 C2.443125 4.59132812 1.88625 4.05765625 1.3125 3.5078125 C0 2 0 2 0 0 Z " fill="#163227" transform="translate(254,177)"/>
<path d="M0 0 C2.31 0.33 4.62 0.66 7 1 C7 1.66 7 2.32 7 3 C4.69 2.67 2.38 2.34 0 2 C0 1.34 0 0.68 0 0 Z " fill="#1A3427" transform="translate(264,160)"/>
<path d="M0 0 C1.2065625 0.0309375 1.2065625 0.0309375 2.4375 0.0625 C1.14784824 1.43812854 -0.18939293 2.77016393 -1.5625 4.0625 C-2.2225 4.0625 -2.8825 4.0625 -3.5625 4.0625 C-3.8925 4.7225 -4.2225 5.3825 -4.5625 6.0625 C-3.48963568 0.08511307 -3.48963568 0.08511307 0 0 Z " fill="#163429" transform="translate(66.5625,154.9375)"/>
<path d="M0 0 C0.33 0.99 0.66 1.98 1 3 C0.01 3.99 -0.98 4.98 -2 6 C-2.99 5.67 -3.98 5.34 -5 5 C-3.35 3.35 -1.7 1.7 0 0 Z " fill="#223E30" transform="translate(81,136)"/>
</svg>
